<?xml version="1.0" encoding="UTF-8"?><svg id="uuid-82f60f0e-e5a9-4ce6-9b1e-5594b3d911d3" xmlns="http://www.w3.org/2000/svg" viewBox="0 0 319 67.63">
<title>CFMoto logo - Brandlogos.net</title><path d="M33.81,0C15.18,0,0,15.18,0,33.81s15.18,33.81,33.81,33.81,33.81-15.18,33.81-33.81S52.44,0,33.81,0M33.81,7.53c14.51,0,26.24,11.78,26.24,26.24s-11.78,26.24-26.24,26.24S7.57,48.24,7.57,33.77,19.3,7.53,33.81,7.53"/><path d="M258.35,48.58v-22.67h-12.83l1.98-5c.42-1.14,1.51-1.89,2.73-1.89h30.7l-1.98,5.05c-.46,1.14-1.56,1.85-2.73,1.85h-9.13v22.67h-8.75Z"/><path d="M91.89,40.08v-12.7c0-.8.67-1.47,1.47-1.47h19.81c1.22,0,2.31-.76,2.73-1.89l1.93-5h-26.24c-2.19,0-4.37.88-6.01,2.52-1.64,1.64-2.48,3.83-2.48,6.01v12.45c0,2.19.84,4.33,2.48,6.01s3.83,2.57,6.01,2.57h20.78c1.22,0,2.31-.76,2.78-1.89l1.98-5.13h-23.76c-.8,0-1.47-.67-1.47-1.47"/><path d="M129.79,19.01c-2.19,0-4.33.88-6.01,2.52-1.64,1.64-2.48,3.83-2.48,6.01v21.03h8.75v-7.95h15.56c1.22,0,2.31-.76,2.78-1.89l1.93-5h-20.23v-6.35c0-.8.67-1.47,1.47-1.47h19.64c1.22,0,2.31-.76,2.78-1.89l1.93-5h-26.12Z"/><path d="M180.3,47.69l-11.52-15.77v16.65h-8.75v-29.57h7.15c1.01,0,1.98.5,2.57,1.35l10.56,15.06,10.43-15.06c.59-.84,1.56-1.35,2.57-1.35h7.28v29.57h-8.75v-16.7l-11.52,15.81Z"/><path d="M233.54,40.08c0,.8-.67,1.47-1.47,1.47h-15.77c-.8,0-1.47-.67-1.47-1.47v-12.7c0-.8.67-1.47,1.47-1.47h15.77c.8,0,1.47.67,1.47,1.47v12.7ZM233.79,19.01h-19.22c-4.71,0-8.54,3.83-8.54,8.54v12.45c0,4.71,3.83,8.54,8.54,8.54h19.18c4.71,0,8.54-3.83,8.54-8.54v-12.45c.04-4.71-3.79-8.54-8.5-8.54"/><path d="M310.29,40.08c0,.8-.67,1.47-1.47,1.47h-15.77c-.8,0-1.47-.67-1.47-1.47v-12.7c0-.8.67-1.47,1.47-1.47h15.77c.8,0,1.47.67,1.47,1.47v12.7ZM310.5,19.01h-19.22c-4.71,0-8.54,3.83-8.54,8.54v12.45c0,4.71,3.83,8.54,8.54,8.54h19.18c4.71,0,8.54-3.83,8.54-8.54v-12.45c.08-4.71-3.74-8.54-8.5-8.54"/><path d="M25.86,29.23c4.54,0,8.92,1.51,8.92,1.51,0,0,4.16,1.43,8.92,1.43,2.94,0,5.97-.42,7.86-.97,1.14-.34,2.1-1.14,2.44-2.31l1.64-5.97s-5,1.43-9.8,1.43-8.92-1.43-8.92-1.43c0,0-4.42-1.47-8.96-1.47-2.82,0-5.89.59-7.78,1.01-1.18.25-2.1,1.14-2.4,2.31l-1.64,5.97h0l-3.41,12.53-.38,1.3s5.13-1.51,9.72-1.51,8.92,1.51,8.92,1.51c0,0,4.16,1.43,8.92,1.43,2.94,0,6.06-.42,7.86-.97,1.14-.34,2.1-1.14,2.44-2.31l1.64-5.97s-5,1.43-9.8,1.43-8.92-1.43-8.92-1.43c0,0-4.37-1.51-8.92-1.51h-.88l1.64-6.01c.29.04.59,0,.88,0"/></svg>